<svg width="23" height="28" viewBox="0 0 23 28" fill="none" xmlns="http://www.w3.org/2000/svg">
<path d="M18.4966 14.4754C18.5237 12.3742 19.6522 10.386 21.4423 9.28537C20.313 7.67247 18.4214 6.64985 16.4534 6.58827C14.3543 6.36795 12.3194 7.84431 11.2498 7.84431C10.1594 7.84431 8.51255 6.61015 6.73914 6.64664C4.42757 6.72132 2.27261 8.03555 1.14799 10.0565C-1.26951 14.242 0.533728 20.3933 2.84949 23.7766C4.00812 25.4333 5.36222 27.2838 7.13403 27.2182C8.86785 27.1463 9.5154 26.1126 11.6083 26.1126C13.6817 26.1126 14.2893 27.2182 16.097 27.1765C17.9575 27.1463 19.1297 25.5124 20.2477 23.84C21.0801 22.6596 21.7207 21.3549 22.1457 19.9744C19.9593 19.0497 18.4992 16.8494 18.4966 14.4754Z" fill="white"/>
<path d="M15.0821 4.36327C16.0965 3.14551 16.5962 1.58029 16.4752 0C14.9254 0.162776 13.4938 0.903474 12.4657 2.07451C11.4604 3.21868 10.9372 4.75636 11.0361 6.27625C12.5864 6.29221 14.1106 5.57159 15.0821 4.36327Z" fill="white"/>
</svg>
