<svg width="30" height="33" viewBox="0 0 30 33" fill="none" xmlns="http://www.w3.org/2000/svg">
<path fill-rule="evenodd" clip-rule="evenodd" d="M7.49766 32.7176H5.15984C4.41216 32.7176 3.77817 32.1844 3.686 31.4772L0.0242213 3.42423C-0.111017 2.37419 0.325704 1.34913 1.19313 0.684133C2.0528 0.0260292 3.19156 -0.172083 4.23901 0.154385L22.6978 6.30644C25.8109 7.27293 28.0858 9.88037 28.4864 12.9461L29.9817 24.3991C30.0825 25.1658 29.7621 25.9109 29.1264 26.3933C28.5044 26.867 27.6801 27.0048 26.9212 26.7637L26.9109 26.7602L11.2249 21.2568C10.4161 21.0001 9.53916 21.1465 8.87761 21.6479C8.2264 22.1423 7.89735 22.8995 7.99813 23.6747L8.97151 31.1266C9.02233 31.516 8.90001 31.9105 8.63729 32.2102C8.35389 32.5324 7.93869 32.7176 7.49766 32.7176ZM0.792582 3.32431L4.45436 31.3764C4.49657 31.6994 4.79978 31.9424 5.15984 31.9424H7.49766C7.71559 31.9424 7.91888 31.8536 8.05412 31.6986C8.17213 31.5642 8.22468 31.3971 8.20314 31.2274L7.22977 23.7746C7.09281 22.7203 7.53384 21.6944 8.40901 21.0302C9.27299 20.3747 10.4152 20.1843 11.4652 20.5203L11.4756 20.5237L27.1615 26.0263C27.6784 26.1891 28.2365 26.0961 28.6569 25.7756C29.0695 25.4638 29.2771 24.9866 29.2134 24.4999L27.7171 13.0468C27.3562 10.28 25.2923 7.92414 22.4601 7.0438L4.00127 0.892604C3.20017 0.642801 2.32414 0.794403 1.66517 1.29918C1.01913 1.79448 0.693522 2.55165 0.792582 3.32431Z" fill="#D2E25E"/>
</svg>
