<svg width="21" height="20" viewBox="0 0 21 20" fill="none" xmlns="http://www.w3.org/2000/svg">
<path d="M11.0465 0.16404L19.8464 5.08164C20.1047 5.2106 20.322 5.40903 20.4738 5.65463C20.6255 5.90024 20.7059 6.1833 20.7057 6.47202V7.96283C20.7057 8.67718 20.1259 9.25694 19.4116 9.25694H18.6351V17.5392H19.6704C19.945 17.5392 20.2083 17.6483 20.4024 17.8424C20.5966 18.0366 20.7057 18.2999 20.7057 18.5745C20.7057 18.8491 20.5966 19.1124 20.4024 19.3065C20.2083 19.5007 19.945 19.6098 19.6704 19.6098H1.03528C0.760709 19.6098 0.497381 19.5007 0.303228 19.3065C0.109074 19.1124 0 18.8491 0 18.5745C0 18.2999 0.109074 18.0366 0.303228 17.8424C0.497381 17.6483 0.760709 17.5392 1.03528 17.5392H2.07057V9.25694H1.2941C0.579759 9.25694 0 8.67718 0 7.96283V6.47202C0 5.93161 0.279527 5.43467 0.73091 5.15307L9.65816 0.16404C9.87384 0.0561632 10.1117 0 10.3528 0C10.594 0 10.8308 0.0561632 11.0465 0.16404ZM16.5645 9.25694H4.14113V17.5392H7.24699V11.3275H9.31755V17.5392H11.3881V11.3275H13.4587V17.5392H16.5645V9.25694ZM10.3528 2.13211L2.07057 6.79089V7.18637H18.6351V6.79089L10.3528 2.13211ZM10.3528 4.08052C10.6274 4.08052 10.8907 4.18959 11.0849 4.38375C11.279 4.5779 11.3881 4.84123 11.3881 5.1158C11.3881 5.39038 11.279 5.6537 11.0849 5.84786C10.8907 6.04201 10.6274 6.15109 10.3528 6.15109C10.0783 6.15109 9.81493 6.04201 9.62078 5.84786C9.42663 5.6537 9.31755 5.39038 9.31755 5.1158C9.31755 4.84123 9.42663 4.5779 9.62078 4.38375C9.81493 4.18959 10.0783 4.08052 10.3528 4.08052Z" fill="#1D78D3"/>
</svg>
