<svg width="1314" height="497" viewBox="0 0 1314 497" fill="none" xmlns="http://www.w3.org/2000/svg">
<path d="M329.491 251.053L323.335 200.707C322.676 195.484 320.57 190.55 317.256 186.46C313.941 182.371 309.55 179.288 304.578 177.561L199.911 141.643C195.447 140.096 190.663 139.707 186.008 140.511C181.352 141.315 176.976 143.287 173.29 146.242L105.29 188.289C101.533 191.269 98.6066 195.167 96.7941 199.607C94.9816 204.046 94.3439 208.879 94.9426 213.637L107.222 314.006C107.829 318.907 109.716 323.562 112.691 327.504C115.666 331.445 119.626 334.535 124.173 336.462L193.42 355.897C194.956 356.548 196.607 356.886 198.275 356.889C200.022 356.88 201.746 356.502 203.336 355.779C204.926 355.057 206.345 354.006 207.5 352.696C208.654 351.386 209.519 349.847 210.036 348.179C210.554 346.511 210.713 344.753 210.502 343.019L189.741 173.211C189.541 171.596 189.754 169.956 190.359 168.445C190.964 166.934 191.942 165.6 193.201 164.568C194.46 163.537 195.96 162.841 197.56 162.545C199.161 162.249 200.811 162.363 202.355 162.877L265.007 185.169C269.977 186.833 274.375 189.868 277.695 193.924C281.015 197.98 283.121 202.891 283.771 208.091L288.849 249.607C288.994 250.719 288.852 251.85 288.436 252.891C288.021 253.933 287.345 254.85 286.475 255.557C285.604 256.264 284.567 256.736 283.462 256.928C282.358 257.121 281.222 257.027 280.164 256.657L226.888 236.704C225.342 236.169 223.686 236.037 222.076 236.32C220.465 236.603 218.953 237.291 217.682 238.319C216.411 239.348 215.422 240.683 214.81 242.2C214.197 243.716 213.981 245.363 214.181 246.986L219.102 287.234C219.405 289.676 220.348 291.995 221.835 293.957C223.322 295.918 225.301 297.452 227.571 298.403L252.944 308.974C257.471 310.85 262.408 311.513 267.269 310.898C272.13 310.283 276.747 308.41 280.663 305.465L318.559 276.873C322.478 273.899 325.549 269.95 327.467 265.42C329.385 260.89 330.083 255.936 329.491 251.053Z" fill="#FCF8F1"/>
<path d="M1167.25 268.18L1197.62 194.156C1197.64 194.096 1197.68 194.045 1197.74 194.008C1197.79 193.972 1197.85 193.953 1197.92 193.953H1218.94C1218.99 193.953 1219.04 193.966 1219.09 193.991C1219.13 194.015 1219.17 194.051 1219.2 194.095C1219.23 194.139 1219.25 194.189 1219.25 194.241C1219.26 194.293 1219.25 194.345 1219.23 194.393L1174.47 297.621C1169.92 308.671 1164.7 316.634 1158.99 321.273C1153.15 326.029 1145.97 328.447 1137.67 328.447C1133.55 328.485 1129.44 328.022 1125.43 327.067L1124.66 326.877C1121.3 326.042 1117.81 325.169 1114.48 323.506L1112.68 322.606C1112.61 322.574 1112.56 322.518 1112.54 322.451C1112.51 322.384 1112.52 322.311 1112.54 322.245L1119.47 305.991C1119.48 305.955 1119.51 305.922 1119.54 305.895C1119.56 305.868 1119.6 305.848 1119.64 305.835C1119.67 305.822 1119.71 305.817 1119.75 305.82C1119.79 305.823 1119.83 305.834 1119.86 305.853L1121.91 306.93C1123.72 307.815 1125.64 308.445 1127.62 308.803L1128.9 309.105C1131.58 309.7 1134.32 309.98 1137.06 309.939C1141.18 309.939 1144.54 308.75 1147.33 306.313C1149.95 303.987 1152.69 299.743 1155.36 293.718C1155.48 293.46 1155.54 293.18 1155.54 292.897C1155.54 292.613 1155.48 292.333 1155.36 292.075L1107.6 194.406C1107.58 194.358 1107.57 194.304 1107.57 194.25C1107.58 194.196 1107.59 194.144 1107.62 194.098C1107.65 194.053 1107.69 194.016 1107.74 193.99C1107.79 193.965 1107.84 193.952 1107.89 193.953H1129.57C1129.64 193.954 1129.69 193.973 1129.75 194.007C1129.8 194.04 1129.84 194.088 1129.86 194.143L1164.3 268.246C1164.36 268.382 1164.45 268.498 1164.58 268.577C1164.7 268.657 1164.85 268.697 1165 268.693L1166.53 268.66C1166.68 268.663 1166.84 268.618 1166.96 268.532C1167.09 268.447 1167.19 268.324 1167.25 268.18Z" fill="#FCF8F1"/>
<path d="M438.875 302.699C449.111 302.357 458.546 300.176 466.889 295.196C475.192 290.266 482.111 283.314 487 274.987C491.916 266.455 494.503 256.782 494.503 246.936C494.503 237.09 491.916 227.417 487 218.886C482.099 210.582 475.182 203.649 466.889 198.729C458.546 193.749 449.15 191.364 438.875 191.226C414.619 190.897 404.461 201.882 404.461 201.882L404.586 194.445C404.586 194.331 404.541 194.222 404.462 194.141C404.382 194.06 404.273 194.013 404.159 194.012H384.344C384.23 194.013 384.122 194.06 384.042 194.141C383.962 194.222 383.917 194.331 383.917 194.445V320.077C383.917 320.19 383.962 320.299 384.042 320.379C384.122 320.459 384.231 320.504 384.344 320.504H404.192C404.305 320.504 404.414 320.459 404.494 320.379C404.574 320.299 404.619 320.19 404.619 320.077L404.494 290.972C404.494 290.972 418.85 303.369 438.875 302.699ZM468.65 264.968C467.117 267.612 465.263 270.057 463.131 272.247C461.011 274.41 458.624 276.295 456.029 277.858C450.792 281.026 444.779 282.681 438.658 282.641C432.226 282.641 426.53 281.011 421.734 277.786C416.909 274.522 413.024 270.05 410.466 264.816C407.789 259.205 406.404 253.065 406.413 246.848C406.422 240.631 407.825 234.495 410.519 228.892C413.102 223.671 417.01 219.22 421.852 215.982C426.648 212.789 432.298 211.179 438.658 211.179C444.823 211.128 450.879 212.803 456.141 216.015C461.359 219.196 465.682 223.652 468.703 228.964C471.775 234.468 473.383 240.669 473.374 246.973C473.364 253.276 471.738 259.472 468.65 264.968Z" fill="#FCF8F1"/>
<path d="M930.314 302.699C940.556 302.357 950.024 300.176 958.335 295.196C966.638 290.266 973.556 283.314 978.445 274.987C983.361 266.455 985.948 256.782 985.948 246.936C985.948 237.09 983.361 227.417 978.445 218.886C973.544 210.582 966.627 203.649 958.335 198.729C949.991 193.749 940.596 191.364 930.314 191.226C906.064 190.897 895.907 201.882 895.907 201.882L896.031 194.445C896.031 194.331 895.987 194.222 895.907 194.141C895.827 194.06 895.718 194.013 895.604 194.012H875.783C875.669 194.013 875.56 194.06 875.48 194.141C875.4 194.222 875.356 194.331 875.356 194.445V320.077C875.356 320.19 875.401 320.299 875.481 320.379C875.561 320.459 875.669 320.504 875.783 320.504H895.631C895.744 320.504 895.853 320.459 895.933 320.379C896.013 320.299 896.058 320.19 896.058 320.077L895.933 290.972C895.933 290.972 910.308 303.369 930.314 302.699ZM960.095 264.968C958.56 267.61 956.706 270.055 954.577 272.247C952.455 274.409 950.068 276.294 947.474 277.858C942.237 281.026 936.224 282.681 930.103 282.641C923.665 282.641 917.975 281.011 913.179 277.786C908.353 274.524 904.467 270.051 901.912 264.816C899.234 259.205 897.849 253.065 897.858 246.848C897.867 240.631 899.27 234.495 901.964 228.892C904.547 223.673 908.452 219.222 913.291 215.982C918.087 212.789 923.744 211.179 930.103 211.179C936.266 211.127 942.32 212.802 947.58 216.015C952.801 219.193 957.126 223.65 960.148 228.964C963.22 234.468 964.828 240.669 964.819 246.973C964.81 253.276 963.183 259.472 960.095 264.968Z" fill="#FCF8F1"/>
<path d="M609.695 194.011H589.472C589.448 194.011 589.424 194.021 589.407 194.038C589.39 194.056 589.38 194.079 589.38 194.103L589.269 207.04C589.269 207.102 589.25 207.163 589.216 207.215C589.181 207.267 589.132 207.308 589.074 207.332C589.016 207.356 588.953 207.362 588.892 207.35C588.83 207.337 588.774 207.307 588.73 207.263L587.902 206.429C584.762 203.288 578.704 197.967 574.933 196.147C567.824 192.737 560.794 191.009 554.027 191.009C544.361 190.913 534.855 193.475 526.545 198.413C518.399 203.27 511.618 210.112 506.835 218.301C501.936 226.665 499.398 236.202 499.49 245.895C499.442 253.451 500.935 260.938 503.878 267.898C506.736 274.625 510.847 280.748 515.993 285.939C521.147 291.115 527.253 295.247 533.976 298.106C540.901 301.039 548.352 302.53 555.873 302.489C563.048 302.489 569.315 300.839 574.486 297.574C580.235 293.948 584.604 289.565 587.475 284.552L588.355 283.002C588.39 282.944 588.442 282.899 588.505 282.874C588.567 282.848 588.636 282.843 588.701 282.859C588.766 282.875 588.825 282.912 588.868 282.963C588.911 283.015 588.936 283.079 588.94 283.146L589.282 302.305C589.282 302.329 589.291 302.352 589.309 302.37C589.326 302.387 589.349 302.397 589.374 302.397H609.741C609.794 302.397 609.847 302.386 609.896 302.365C609.945 302.345 609.989 302.315 610.026 302.277C610.064 302.239 610.093 302.194 610.113 302.145C610.133 302.095 610.142 302.042 610.141 301.989V194.419C610.143 194.361 610.132 194.305 610.109 194.252C610.087 194.199 610.053 194.152 610.011 194.113C609.968 194.075 609.918 194.046 609.864 194.028C609.809 194.011 609.752 194.005 609.695 194.011ZM583.566 264.81C582.277 267.44 580.651 269.891 578.73 272.102C576.849 274.265 574.681 276.159 572.285 277.733C567.45 280.919 561.773 282.535 555.315 282.535C549.253 282.575 543.298 280.937 538.108 277.805C532.887 274.66 528.546 270.246 525.487 264.974C522.371 259.466 520.725 253.249 520.705 246.921C520.685 240.593 522.294 234.366 525.375 228.839C528.386 223.545 532.678 219.092 537.858 215.889C543.112 212.657 549.173 210.978 555.341 211.047C561.315 210.938 567.186 212.61 572.206 215.85C577.065 219.073 580.975 223.534 583.533 228.773C586.196 234.401 587.583 240.548 587.593 246.775C587.603 253.001 586.237 259.153 583.592 264.79L583.566 264.81Z" fill="#FCF8F1"/>
<path d="M832.023 194.011H811.807C811.783 194.013 811.76 194.023 811.743 194.04C811.727 194.057 811.716 194.08 811.715 194.103L811.603 207.04C811.605 207.102 811.588 207.164 811.554 207.217C811.521 207.269 811.472 207.311 811.414 207.335C811.356 207.359 811.293 207.365 811.231 207.352C811.17 207.34 811.114 207.308 811.071 207.263L810.237 206.429C807.096 203.288 801.039 197.967 797.274 196.147C790.159 192.737 783.129 191.009 776.368 191.009C766.702 190.912 757.195 193.473 748.886 198.413C740.741 203.271 733.96 210.113 729.176 218.301C724.282 226.667 721.746 236.203 721.837 245.895C721.787 253.451 723.278 260.937 726.22 267.898C729.079 274.624 733.19 280.746 738.335 285.939C743.49 291.117 749.598 295.249 756.323 298.106C763.249 301.039 770.7 302.53 778.221 302.489C785.395 302.489 791.657 300.84 796.834 297.574C802.582 293.948 806.945 289.565 809.816 284.553L810.703 283.002C810.738 282.944 810.79 282.899 810.852 282.874C810.915 282.848 810.983 282.843 811.049 282.859C811.114 282.875 811.172 282.912 811.215 282.963C811.258 283.015 811.284 283.079 811.288 283.147L811.623 302.305C811.623 302.329 811.632 302.352 811.65 302.37C811.667 302.387 811.69 302.397 811.715 302.397H832.082C832.19 302.397 832.293 302.354 832.37 302.277C832.446 302.201 832.489 302.097 832.489 301.989V194.419C832.49 194.36 832.478 194.302 832.454 194.248C832.43 194.194 832.394 194.146 832.35 194.108C832.305 194.069 832.253 194.04 832.197 194.024C832.14 194.007 832.081 194.003 832.023 194.011ZM805.9 264.81C804.611 267.438 802.988 269.889 801.071 272.102C799.19 274.265 797.022 276.159 794.626 277.733C789.791 280.919 784.114 282.536 777.656 282.536C771.594 282.575 765.639 280.938 760.449 277.805C755.227 274.661 750.886 270.247 747.828 264.974C744.628 259.476 742.975 253.215 743.045 246.854C742.984 240.548 744.595 234.338 747.717 228.859C750.728 223.565 755.02 219.113 760.199 215.909C765.455 212.676 771.519 210.998 777.689 211.067C783.661 210.958 789.53 212.63 794.547 215.87C799.409 219.089 803.32 223.551 805.874 228.793C808.538 234.421 809.924 240.568 809.934 246.795C809.944 253.021 808.578 259.173 805.933 264.81H805.9Z" fill="#FCF8F1"/>
<path d="M1046.02 191.009C1035.99 191.14 1026.74 193.499 1018.54 198.407C1010.4 203.268 1003.62 210.109 998.829 218.294C993.935 226.66 991.399 236.196 991.491 245.888C991.441 253.444 992.932 260.931 995.873 267.891C998.732 274.619 1002.85 280.742 1007.99 285.932C1013.15 291.112 1019.25 295.244 1025.98 298.1C1032.9 301.032 1040.35 302.523 1047.87 302.482C1055.05 302.482 1061.31 300.833 1066.48 297.568C1072.24 293.941 1077.77 290.032 1081.16 284.717L1081.28 302.298C1081.28 302.322 1081.29 302.346 1081.3 302.363C1081.32 302.38 1081.34 302.39 1081.37 302.39H1102.02C1102.04 302.388 1102.06 302.378 1102.08 302.361C1102.1 302.344 1102.11 302.322 1102.11 302.298V194.103C1102.11 194.08 1102.1 194.057 1102.08 194.04C1102.06 194.023 1102.04 194.013 1102.02 194.011H1081.49C1081.46 194.013 1081.44 194.023 1081.42 194.04C1081.41 194.057 1081.4 194.08 1081.39 194.103L1081.28 201.33C1081.28 201.33 1068.77 190.713 1046.02 191.009ZM1075.59 264.81C1074.3 267.441 1072.68 269.893 1070.76 272.102C1068.88 274.268 1066.71 276.163 1064.31 277.733C1059.48 280.919 1053.77 282.536 1047.34 282.536C1041.28 282.575 1035.33 280.938 1030.14 277.805C1024.91 274.661 1020.57 270.247 1017.51 264.974C1014.31 259.476 1012.66 253.215 1012.73 246.854C1012.67 240.548 1014.28 234.338 1017.4 228.859C1020.41 223.564 1024.7 219.111 1029.89 215.909C1035.14 212.676 1041.2 210.998 1047.37 211.067C1053.35 210.958 1059.22 212.63 1064.23 215.87C1069.08 219.096 1072.97 223.558 1075.51 228.793C1078.17 234.421 1079.56 240.568 1079.57 246.795C1079.58 253.021 1078.21 259.173 1075.57 264.81H1075.59Z" fill="#FCF8F1"/>
<path d="M716.57 302.391H692.189C692.113 302.389 692.038 302.37 691.971 302.335C691.903 302.3 691.845 302.249 691.801 302.187L666.388 267.366C666.344 267.304 666.285 267.253 666.217 267.218C666.149 267.183 666.074 267.164 665.997 267.164C665.921 267.164 665.845 267.183 665.777 267.218C665.709 267.253 665.651 267.304 665.606 267.366L640.299 302.187C640.254 302.249 640.194 302.3 640.126 302.336C640.058 302.371 639.982 302.39 639.905 302.391H615.53C615.44 302.392 615.352 302.367 615.276 302.321C615.199 302.274 615.137 302.207 615.097 302.127C615.056 302.047 615.039 301.957 615.047 301.868C615.055 301.779 615.088 301.694 615.142 301.622L653.051 249.062C653.112 248.98 653.145 248.881 653.145 248.78C653.145 248.678 653.112 248.579 653.051 248.497L615.353 194.551C615.301 194.478 615.27 194.393 615.263 194.304C615.257 194.215 615.275 194.126 615.316 194.047C615.356 193.967 615.418 193.901 615.494 193.854C615.57 193.807 615.658 193.782 615.747 193.782H640.128C640.204 193.783 640.279 193.803 640.346 193.838C640.413 193.873 640.472 193.924 640.516 193.986L665.606 230.515C665.651 230.577 665.709 230.628 665.777 230.663C665.845 230.698 665.921 230.717 665.997 230.717C666.074 230.717 666.149 230.698 666.217 230.663C666.285 230.628 666.344 230.577 666.388 230.515L691.584 193.986C691.628 193.924 691.686 193.873 691.754 193.838C691.821 193.803 691.896 193.783 691.972 193.782H716.281C716.37 193.782 716.457 193.807 716.533 193.854C716.609 193.901 716.671 193.967 716.712 194.047C716.753 194.126 716.771 194.215 716.764 194.304C716.758 194.393 716.727 194.478 716.675 194.551L679.075 248.497C679.014 248.579 678.981 248.678 678.981 248.78C678.981 248.881 679.014 248.98 679.075 249.062L716.99 301.622C717.044 301.696 717.075 301.784 717.08 301.876C717.086 301.967 717.066 302.058 717.022 302.139C716.978 302.219 716.912 302.285 716.832 302.33C716.752 302.374 716.661 302.396 716.57 302.391Z" fill="#FCF8F1"/>
<path d="M863.625 176.496H843.672C843.443 176.496 843.258 176.681 843.258 176.91V302.357C843.258 302.586 843.443 302.771 843.672 302.771H863.625C863.853 302.771 864.039 302.586 864.039 302.357V176.91C864.039 176.681 863.853 176.496 863.625 176.496Z" fill="#FCF8F1"/>
</svg>
