<svg width="160" height="31" viewBox="0 0 160 31" fill="none" xmlns="http://www.w3.org/2000/svg">
<path d="M33.4037 15.7845L32.5275 8.61913C32.4333 7.87677 32.1337 7.17546 31.6624 6.59424C31.1911 6.01302 30.5668 5.57499 29.8599 5.32952L14.9669 0.218664C14.3316 -0.00124376 13.6508 -0.0564205 12.9884 0.0582924C12.3259 0.173005 11.7033 0.45386 11.1789 0.874592L1.50347 6.8557C0.968751 7.27961 0.552345 7.83421 0.29444 8.46597C0.0365359 9.09772 -0.0541556 9.78529 0.0311195 10.4623L1.7776 24.7422C1.86466 25.4385 2.13315 26.0997 2.55619 26.6595C2.97922 27.2194 3.54195 27.6582 4.18799 27.9321L14.0409 30.6974C14.3248 30.8178 14.6355 30.8613 14.9416 30.8236C15.2477 30.7859 15.5385 30.6683 15.7848 30.4827C16.0311 30.297 16.2242 30.0498 16.3447 29.7659C16.4651 29.4819 16.5088 29.1713 16.4712 28.8652L13.5165 4.70848C13.4885 4.47878 13.519 4.24572 13.6051 4.03096C13.6913 3.8162 13.8304 3.6267 14.0094 3.48009C14.1884 3.33348 14.4016 3.23451 14.6292 3.19238C14.8567 3.15025 15.0912 3.16633 15.3109 3.23912L24.2237 6.41011C24.9309 6.64699 25.5568 7.07883 26.0293 7.6559C26.5018 8.23296 26.8016 8.93177 26.8943 9.6718L27.617 15.5791C27.6361 15.737 27.6148 15.8972 27.5552 16.0446C27.4956 16.192 27.3995 16.3219 27.276 16.4221C27.1525 16.5223 27.0056 16.5895 26.8491 16.6175C26.6925 16.6454 26.5314 16.6332 26.3809 16.582L18.8008 13.7429C18.5814 13.6687 18.3468 13.6512 18.1188 13.6922C17.8908 13.7332 17.6769 13.8313 17.4971 13.9773C17.3173 14.1234 17.1775 14.3126 17.0906 14.5274C17.0038 14.7421 16.9728 14.9754 17.0005 15.2053L17.6983 20.9322C17.7407 21.2799 17.8745 21.6101 18.086 21.8892C18.2976 22.1683 18.5793 22.3864 18.9025 22.5212L22.5091 24.0255C23.1531 24.2923 23.8555 24.3866 24.547 24.2992C25.2385 24.2118 25.8953 23.9457 26.4527 23.527L31.8446 19.4579C32.4027 19.0351 32.8403 18.4735 33.1138 17.829C33.3873 17.1845 33.4873 16.4796 33.4037 15.7845Z" fill="#1D78D3"/>
<path d="M152.601 18.2208L156.922 7.68909C156.926 7.68052 156.932 7.67317 156.939 7.66802C156.947 7.66286 156.956 7.66013 156.965 7.66018H159.956C159.963 7.66022 159.97 7.6621 159.977 7.66566C159.983 7.66922 159.989 7.67434 159.993 7.68057C159.997 7.68679 159.999 7.69393 160 7.70133C160.001 7.70873 159.999 7.71617 159.996 7.72298L153.63 22.4076C152.981 23.9796 152.24 25.1121 151.427 25.775C150.595 26.4518 149.574 26.7957 148.393 26.7957C147.806 26.7999 147.221 26.733 146.651 26.5964L146.542 26.5685C146.043 26.4627 145.557 26.3019 145.094 26.089L144.837 25.9644C144.828 25.9598 144.821 25.952 144.817 25.9423C144.814 25.9327 144.814 25.9221 144.817 25.9125L145.803 23.5998C145.806 23.5948 145.809 23.5904 145.813 23.5867C145.817 23.583 145.822 23.5802 145.827 23.5785C145.832 23.5767 145.838 23.576 145.843 23.5764C145.849 23.5768 145.854 23.5784 145.859 23.5809L146.151 23.7344C146.409 23.8597 146.682 23.9493 146.964 24.0006L147.145 24.0424C147.526 24.1272 147.916 24.1671 148.306 24.1611C148.841 24.1797 149.363 23.9956 149.767 23.6457C150.146 23.3147 150.529 22.7126 150.91 21.8514C150.927 21.8146 150.936 21.7746 150.936 21.7342C150.936 21.6938 150.927 21.6539 150.91 21.6171L144.116 7.72198C144.112 7.71517 144.111 7.7076 144.111 7.7C144.111 7.6924 144.114 7.68502 144.118 7.67854C144.122 7.67206 144.127 7.6667 144.134 7.66296C144.14 7.65923 144.148 7.65724 144.156 7.65719H147.246C147.254 7.65724 147.263 7.6598 147.27 7.66458C147.277 7.66936 147.283 7.67614 147.287 7.6841L152.186 18.2278C152.195 18.2472 152.208 18.2636 152.226 18.275C152.244 18.2863 152.265 18.2921 152.286 18.2916L152.504 18.2866C152.525 18.2863 152.545 18.2798 152.562 18.2682C152.58 18.2565 152.593 18.24 152.601 18.2208Z" fill="#1D78D3"/>
<path d="M48.9675 23.1333C50.4249 23.0845 51.7667 22.7734 52.9549 22.0647C54.1367 21.3627 55.1208 20.3721 55.8149 19.1858C56.515 17.9722 56.8835 16.5959 56.8835 15.1949C56.8835 13.7939 56.515 12.4175 55.8149 11.204C55.1183 10.0221 54.1341 9.03553 52.9539 8.33604C51.7667 7.62728 50.4259 7.28735 48.9665 7.26742C45.5164 7.22156 44.07 8.78462 44.07 8.78462L44.0889 7.72597C44.0889 7.70958 44.0824 7.69385 44.0708 7.68226C44.0592 7.67067 44.0435 7.66416 44.0271 7.66416H41.205C41.197 7.66416 41.189 7.66577 41.1815 7.66888C41.1741 7.672 41.1673 7.67657 41.1617 7.68232C41.156 7.68807 41.1516 7.6949 41.1486 7.70239C41.1456 7.70988 41.1441 7.7179 41.1442 7.72597V25.6055C41.1442 25.6216 41.1506 25.6371 41.162 25.6485C41.1734 25.6599 41.1889 25.6663 41.205 25.6663H44.0281C44.0443 25.6663 44.0599 25.6599 44.0715 25.6486C44.083 25.6372 44.0897 25.6217 44.0899 25.6055L44.071 21.4636C44.071 21.4636 46.1165 23.228 48.9675 23.1333ZM53.2051 17.7643C52.9866 18.1403 52.7228 18.4881 52.4196 18.8C52.1175 19.1072 51.7779 19.3752 51.4088 19.5975C50.6642 20.0499 49.8088 20.2869 48.9376 20.2823C48.0215 20.2823 47.2121 20.051 46.5292 19.5915C45.8425 19.1275 45.2897 18.4912 44.9263 17.7463C44.5367 16.9516 44.339 16.0765 44.3491 15.1914C44.3388 14.3051 44.5394 13.429 44.9343 12.6355C45.3011 11.8923 45.857 11.2587 46.5462 10.7983C47.2572 10.3359 48.0907 10.0977 48.9386 10.1144C49.8174 10.1062 50.6809 10.3449 51.4307 10.8032C52.1732 11.2557 52.7883 11.8897 53.2181 12.6454C53.6546 13.4288 53.8832 14.311 53.8819 15.2077C53.8807 16.1045 53.6498 16.9861 53.2111 17.7682L53.2051 17.7643Z" fill="#1D78D3"/>
<path d="M118.892 23.1333C120.35 23.0844 121.691 22.7734 122.88 22.0647C124.061 21.3625 125.046 20.3719 125.741 19.1858C126.44 17.972 126.808 16.5957 126.808 15.1949C126.808 13.794 126.44 12.4177 125.741 11.204C125.043 10.0222 124.059 9.03576 122.879 8.33602C121.691 7.62726 120.351 7.28734 118.891 7.2674C115.442 7.22354 113.994 8.7886 113.994 8.7886L114.012 7.72994C114.012 7.71372 114.005 7.69815 113.994 7.68658C113.982 7.67502 113.967 7.66839 113.951 7.66813H111.127C111.119 7.66813 111.111 7.66974 111.103 7.67286C111.096 7.67598 111.089 7.68054 111.083 7.68629C111.078 7.69205 111.073 7.69887 111.07 7.70636C111.067 7.71386 111.066 7.72187 111.066 7.72994V25.6055C111.066 25.6216 111.072 25.6371 111.084 25.6485C111.095 25.6599 111.111 25.6663 111.127 25.6663H113.951C113.967 25.666 113.982 25.6595 113.994 25.6482C114.005 25.6368 114.011 25.6215 114.012 25.6055L113.994 21.4636C113.994 21.4636 116.042 23.228 118.892 23.1333ZM123.13 17.7642C122.912 18.1405 122.648 18.4884 122.344 18.8C122.042 19.1075 121.703 19.3754 121.333 19.5975C120.588 20.0482 119.733 20.2836 118.862 20.2773C117.946 20.2773 117.137 20.046 116.455 19.5865C115.768 19.1228 115.214 18.4865 114.851 17.7413C114.462 16.9465 114.264 16.0714 114.275 15.1864C114.264 14.3002 114.464 13.4241 114.859 12.6305C115.226 11.8873 115.782 11.2537 116.471 10.7933C117.182 10.3309 118.015 10.0927 118.863 10.1094C119.742 10.1012 120.606 10.3399 121.355 10.7982C122.098 11.2504 122.713 11.8845 123.143 12.6404C123.58 13.4236 123.809 14.3058 123.808 15.2027C123.806 16.0997 123.575 16.9813 123.136 17.7632L123.13 17.7642Z" fill="#1D78D3"/>
<path d="M73.2704 7.66814H70.3945C70.391 7.66839 70.3877 7.66997 70.3853 7.67256C70.3829 7.67515 70.3816 7.67856 70.3816 7.68209L70.3656 9.52228C70.3657 9.53121 70.3631 9.53995 70.3582 9.54739C70.3533 9.55484 70.3462 9.56064 70.338 9.56407C70.3297 9.56749 70.3207 9.56838 70.3119 9.56662C70.3032 9.56486 70.2951 9.56053 70.2889 9.55418L70.1702 9.43456C69.7237 8.98797 68.8644 8.23036 68.3261 7.97218C67.3143 7.48671 66.3134 7.24149 65.3515 7.24149C63.9762 7.22736 62.6235 7.59115 61.4408 8.29316C60.2809 8.9841 59.3152 9.95778 58.6337 11.1232C57.9367 12.3135 57.5757 13.6706 57.589 15.0498C57.5818 16.1248 57.7941 17.1899 58.213 18.1799C58.6195 19.1374 59.2044 20.0089 59.9366 20.7478C60.6703 21.4832 61.5392 22.0698 62.4955 22.4754C63.4811 22.8926 64.5413 23.1049 65.6116 23.0994C66.6324 23.0994 67.5236 22.8641 68.2593 22.4016C69.0777 21.8852 69.6987 21.2622 70.1064 20.5485L70.233 20.3281C70.2379 20.3197 70.2454 20.313 70.2544 20.3092C70.2634 20.3054 70.2734 20.3046 70.2828 20.307C70.2923 20.3093 70.3007 20.3147 70.3069 20.3223C70.313 20.3299 70.3165 20.3393 70.3168 20.3491L70.3646 23.0745C70.3646 23.0779 70.366 23.0812 70.3684 23.0836C70.3709 23.0861 70.3742 23.0874 70.3776 23.0874H73.2685C73.2838 23.0874 73.2985 23.0813 73.3093 23.0705C73.3202 23.0597 73.3263 23.0449 73.3263 23.0296V7.72197C73.3253 7.70767 73.319 7.69425 73.3087 7.68431C73.2984 7.67436 73.2848 7.6686 73.2704 7.66814ZM69.5542 17.7413C69.3703 18.1156 69.1392 18.4647 68.8664 18.78C68.5983 19.0863 68.2898 19.3546 67.9493 19.5775C67.2302 20.0399 66.3896 20.2776 65.5349 20.2604C64.6724 20.2661 63.8251 20.0332 63.0866 19.5875C62.3437 19.1403 61.7263 18.512 61.2923 17.7613C60.8367 16.9796 60.6015 16.0891 60.6114 15.1844C60.6029 14.2871 60.8319 13.4036 61.2753 12.6235C61.7028 11.8709 62.3122 11.2375 63.0477 10.7813C63.7967 10.3209 64.6608 10.0821 65.5399 10.0925C66.3894 10.0768 67.2244 10.3145 67.9383 10.7753C68.63 11.2337 69.1865 11.8687 69.5502 12.6145C69.9294 13.4151 70.1268 14.2896 70.1284 15.1754C70.1299 16.0612 69.9356 16.9364 69.5592 17.7383L69.5542 17.7413Z" fill="#1D78D3"/>
<path d="M104.905 7.66814H102.032C102.028 7.66859 102.025 7.67024 102.023 7.67279C102.021 7.67533 102.019 7.67862 102.019 7.68209L102.003 9.52228C102.003 9.531 102 9.5395 101.995 9.54674C101.99 9.55397 101.984 9.55963 101.976 9.56301C101.967 9.5664 101.959 9.56736 101.95 9.5658C101.941 9.56423 101.934 9.56019 101.927 9.55418L101.809 9.43456C101.362 8.98797 100.503 8.23036 99.9644 7.97218C98.9526 7.48671 97.9518 7.24149 96.9898 7.24149C95.6145 7.22736 94.2618 7.59115 93.0791 8.29316C91.9179 8.98329 90.9509 9.95709 90.269 11.1232C89.5721 12.3135 89.211 13.6706 89.2243 15.0498C89.2171 16.1248 89.4295 17.1899 89.8484 18.1799C90.2549 19.1374 90.8398 20.0089 91.5719 20.7478C92.3051 21.4833 93.1737 22.0699 94.1298 22.4754C95.1151 22.8927 96.175 23.105 97.245 23.0994C98.2668 23.0994 99.157 22.8641 99.8936 22.4016C100.712 21.8852 101.333 21.2622 101.741 20.5485L101.867 20.3281C101.872 20.3194 101.879 20.3124 101.888 20.3084C101.897 20.3044 101.907 20.3035 101.917 20.3059C101.927 20.3083 101.935 20.3139 101.941 20.3218C101.947 20.3296 101.95 20.3392 101.95 20.3491L101.999 23.0745C101.999 23.0779 102 23.0812 102.003 23.0836C102.005 23.0861 102.008 23.0874 102.012 23.0874H104.903C104.918 23.0874 104.933 23.0813 104.944 23.0705C104.955 23.0597 104.961 23.045 104.961 23.0296V7.72197C104.96 7.70767 104.953 7.69425 104.943 7.68431C104.933 7.67436 104.919 7.6686 104.905 7.66814ZM101.189 17.7413C101.004 18.1156 100.773 18.4647 100.5 18.78C100.232 19.0865 99.924 19.3549 99.5836 19.5775C98.8645 20.0399 98.024 20.2776 97.1692 20.2604C96.3067 20.2661 95.4594 20.0332 94.721 19.5875C93.9783 19.1399 93.361 18.5117 92.9266 17.7613C92.4719 16.9793 92.2369 16.0889 92.2468 15.1844C92.2375 14.287 92.4666 13.4033 92.9107 12.6235C93.3381 11.8709 93.9475 11.2375 94.6831 10.7813C95.4321 10.3209 96.2961 10.0821 97.1752 10.0925C98.0248 10.0768 98.8597 10.3145 99.5736 10.7753C100.265 11.2337 100.822 11.8687 101.186 12.6145C101.564 13.4153 101.761 14.2897 101.763 15.1754C101.764 16.0611 101.57 16.9363 101.195 17.7383L101.189 17.7413Z" fill="#1D78D3"/>
<path d="M135.352 7.2415C133.925 7.25944 132.609 7.59538 131.442 8.29318C130.282 8.98439 129.316 9.958 128.634 11.1232C127.937 12.3135 127.576 13.6705 127.589 15.0498C127.582 16.1249 127.795 17.19 128.214 18.1799C128.62 19.1376 129.205 20.0091 129.937 20.7478C130.671 21.4834 131.54 22.07 132.496 22.4754C133.482 22.8926 134.541 23.1049 135.611 23.0994C136.633 23.0994 137.523 22.8642 138.26 22.4016C139.077 21.8852 139.866 21.33 140.353 20.5734L140.369 23.0745C140.369 23.0779 140.371 23.0812 140.373 23.0836C140.376 23.0861 140.379 23.0874 140.382 23.0874H143.32C143.324 23.0875 143.327 23.0861 143.33 23.0837C143.332 23.0813 143.334 23.078 143.334 23.0745V7.68211C143.334 7.67848 143.332 7.67507 143.33 7.6725C143.327 7.66993 143.324 7.66838 143.32 7.66815H140.399C140.396 7.6684 140.392 7.66998 140.39 7.67257C140.388 7.67516 140.386 7.67857 140.386 7.68211L140.369 8.70986C140.369 8.70986 138.589 7.19863 135.352 7.2415ZM139.554 17.7413C139.371 18.116 139.14 18.4652 138.867 18.7801C138.599 19.0866 138.291 19.3549 137.95 19.5775C137.231 20.0399 136.39 20.2776 135.535 20.2604C134.672 20.2657 133.825 20.0329 133.086 19.5875C132.344 19.14 131.726 18.5117 131.292 17.7613C130.837 16.9793 130.602 16.0889 130.612 15.1844C130.603 14.2871 130.832 13.4033 131.276 12.6235C131.704 11.8709 132.313 11.2375 133.049 10.7813C133.796 10.3217 134.658 10.0829 135.536 10.0925C136.386 10.0765 137.221 10.3143 137.935 10.7753C138.627 11.2337 139.183 11.8687 139.547 12.6145C139.926 13.4153 140.123 14.2898 140.124 15.1755C140.126 16.0613 139.931 16.9364 139.555 17.7383L139.554 17.7413Z" fill="#1D78D3"/>
<path d="M88.4742 23.0884H85.0051C84.9943 23.0885 84.9836 23.086 84.9739 23.0812C84.9642 23.0763 84.9557 23.0693 84.9493 23.0605L81.3337 18.1072C81.3272 18.0985 81.3188 18.0915 81.3091 18.0866C81.2994 18.0818 81.2887 18.0793 81.2779 18.0793C81.2671 18.0793 81.2564 18.0818 81.2467 18.0866C81.237 18.0915 81.2286 18.0985 81.2221 18.1072L77.6214 23.0595C77.6148 23.0681 77.6064 23.075 77.5967 23.0799C77.5871 23.0847 77.5764 23.0873 77.5656 23.0874H74.1006C74.0878 23.0875 74.0752 23.0841 74.0643 23.0774C74.0534 23.0708 74.0446 23.0613 74.0388 23.0499C74.033 23.0385 74.0305 23.0257 74.0315 23.013C74.0326 23.0003 74.0372 22.9881 74.0447 22.9778L79.4397 15.5014C79.4479 15.4896 79.4523 15.4755 79.4523 15.461C79.4523 15.4466 79.4479 15.4325 79.4397 15.4207L74.0756 7.74491C74.0681 7.73463 74.0635 7.72245 74.0624 7.70972C74.0614 7.69698 74.0639 7.68421 74.0697 7.67283C74.0755 7.66144 74.0843 7.6519 74.0952 7.64526C74.1061 7.63862 74.1187 7.63516 74.1315 7.63525H77.6005C77.6112 7.63517 77.6218 7.63766 77.6313 7.64252C77.6409 7.64738 77.6491 7.65446 77.6553 7.66316L81.2251 12.8607C81.2316 12.8694 81.24 12.8764 81.2497 12.8813C81.2594 12.8861 81.2701 12.8887 81.2809 12.8887C81.2917 12.8887 81.3024 12.8861 81.3121 12.8813C81.3218 12.8764 81.3302 12.8694 81.3367 12.8607L84.9254 7.66217C84.9318 7.65344 84.9402 7.64637 84.9499 7.64152C84.9596 7.63667 84.9703 7.63418 84.9812 7.63425H88.4363C88.449 7.63411 88.4614 7.63753 88.4722 7.64411C88.4831 7.6507 88.4918 7.66018 88.4976 7.6715C88.5033 7.68282 88.5057 7.6955 88.5046 7.70813C88.5034 7.72075 88.4988 7.7328 88.4911 7.74291L83.142 15.4187C83.1332 15.4303 83.1284 15.4445 83.1284 15.459C83.1284 15.4736 83.1332 15.4878 83.142 15.4994L88.536 22.9758C88.545 22.9864 88.5506 22.9995 88.552 23.0134C88.5534 23.0272 88.5505 23.0412 88.5438 23.0534C88.5371 23.0656 88.5269 23.0755 88.5144 23.0817C88.502 23.088 88.488 23.0903 88.4742 23.0884Z" fill="#1D78D3"/>
<path d="M109.397 5.17603H106.566C106.532 5.17603 106.503 5.20415 106.503 5.23884V23.0805C106.503 23.1152 106.532 23.1433 106.566 23.1433H109.397C109.432 23.1433 109.46 23.1152 109.46 23.0805V5.23884C109.46 5.20415 109.432 5.17603 109.397 5.17603Z" fill="#1D78D3"/>
</svg>
