<svg width="24" height="27" viewBox="0 0 24 27" fill="none" xmlns="http://www.w3.org/2000/svg">
<path d="M11.2061 12.81L0.103333 24.5944C0.10375 24.5968 0.104584 24.5989 0.105001 24.6013C0.445495 25.8808 1.61423 26.8231 3.00134 26.8231C3.55583 26.8231 4.07642 26.6732 4.52287 26.41L4.55833 26.3892L17.056 19.1776L11.2061 12.81Z" fill="#EA4335"/>
<path d="M22.4389 10.8034L22.4283 10.7961L17.0327 7.66825L10.954 13.0774L17.0539 19.1764L22.421 16.0796C23.3619 15.5717 24.0007 14.5797 24.0007 13.4358C24.0007 12.3001 23.3705 11.313 22.4389 10.8034Z" fill="#FBBC04"/>
<path d="M0.102558 2.22825C0.0358145 2.47436 0.000732422 2.73216 0.000732422 2.99986V23.8233C0.000732422 24.0905 0.0353971 24.3492 0.102974 24.5944L11.5879 13.1115L0.102558 2.22825Z" fill="#4285F4"/>
<path d="M11.2868 13.4114L17.0336 7.66629L4.55017 0.42863C4.09642 0.15686 3.56686 1.52588e-05 3.00017 1.52588e-05C1.61306 1.52588e-05 0.442761 0.943909 0.102163 2.22506C0.101745 2.22631 0.101746 2.22715 0.101746 2.2283L11.2868 13.4114Z" fill="#34A853"/>
</svg>
