<svg width="499" height="502" viewBox="0 0 499 502" fill="none" xmlns="http://www.w3.org/2000/svg">
<g clip-path="url(#clip0_889_19548)">
<path d="M300.846 0.212402H87.4853C71.7479 0.212402 58.9902 12.9701 58.9902 28.7075V214.64C58.9902 230.377 71.7479 243.135 87.4853 243.135H300.846C316.583 243.135 329.341 230.377 329.341 214.64V28.7075C329.341 12.9701 316.583 0.212402 300.846 0.212402Z" stroke="#231F20" stroke-width="0.42492" stroke-miterlimit="10"/>
<path d="M59.2493 203.626H329.6" stroke="#231F20" stroke-width="0.42492" stroke-miterlimit="10"/>
<path d="M375.717 338.462C375.717 338.462 360.42 333.992 358.81 336.21C353.49 343.51 337.22 359.805 337.22 359.805C337.22 359.805 292.743 359.805 279.617 384.697C260.755 420.48 339.042 424.436 345.238 366.107C372.93 341.823 375.692 341.126 375.717 338.462Z" fill="#231F20" stroke="#231F20" stroke-width="0.42492" stroke-miterlimit="10"/>
<path d="M295.087 278.803L174.142 363.001C172.318 364.269 170.849 365.983 169.872 367.978C168.896 369.973 168.445 372.185 168.562 374.403C168.679 376.622 169.36 378.774 170.541 380.655C171.722 382.537 173.364 384.086 175.31 385.156L367.706 490.863C370.159 492.211 372.98 492.735 375.754 492.357C378.527 491.979 381.106 490.719 383.109 488.764L494.412 380.201C495.938 378.712 497.076 376.871 497.726 374.84C498.376 372.809 498.518 370.65 498.141 368.552C497.764 366.453 496.878 364.479 495.561 362.801C494.245 361.124 492.537 359.795 490.588 358.93L307.856 277.592C305.803 276.679 303.549 276.311 301.312 276.523C299.076 276.735 296.931 277.52 295.087 278.803Z" stroke="#231F20" stroke-width="0.42492" stroke-miterlimit="10"/>
<path d="M225.58 478.884L275.139 440L286.841 446.429L238.927 485.5C229.435 493.869 217.7 499.275 205.171 501.052C180.585 504.545 162.433 495.66 163.062 470.836C163.351 459.504 169.368 451.813 178.678 442.83L218.62 408.955L229.88 415.146L185.689 452.871C177.496 460.902 174.416 468.138 177.462 477.163C189.237 503.19 225.58 478.884 225.58 478.884Z" stroke="#231F20" stroke-width="0.42492" stroke-miterlimit="10"/>
<path d="M370.637 301.141L371.325 309.639C371.325 309.639 368.287 313.773 366.825 314.381C365.364 314.989 362.576 311.343 362.818 310.854C363.061 310.366 358.807 301.931 358.807 301.931L360.83 297.593L370.637 301.141Z" fill="#D2E25F"/>
<path d="M371.486 300.966C371.486 300.966 374.767 303.435 377.078 315.588C379.39 327.741 380.601 342.808 361.645 349.004C357.149 349.004 350.1 348.154 348.898 338.92C347.695 329.687 348.379 313.519 351.676 306.835C354.974 300.151 357.039 299.186 358.254 299.424C359.469 299.662 364.492 311.211 365.992 311.322C367.492 311.432 369.719 306.805 369.697 304.2C369.676 301.595 371.486 300.966 371.486 300.966Z" fill="#6C32AD"/>
<path d="M372.154 300.843C372.154 300.843 376.692 302.781 377.177 307.803C377.485 310.55 377.485 313.322 377.177 316.068L371.228 301.383L372.154 300.843Z" fill="#6C32AD"/>
<path d="M361.256 311.16C361.256 311.16 360.772 336.277 353.48 346.973C353.157 347.398 347.727 342.515 348.381 337.25C349.035 331.986 360.615 311.16 360.615 311.16H361.256Z" fill="#141C14"/>
<path d="M361.715 312.686C361.715 312.686 347.906 344.525 344.379 352.785C340.852 361.046 336.195 377.499 319.67 379.929C303.145 382.36 267.332 366.332 278.678 319.327C290.023 272.322 289.513 277.502 289.513 277.502C289.513 277.502 328.58 316.089 331.338 320.139C334.096 324.188 344.459 310.901 344.459 310.901C344.459 310.901 353.383 300.533 356.128 300.533C358.873 300.533 363.73 309.12 364.877 310.578C366.024 312.035 361.715 312.686 361.715 312.686Z" fill="#6C32AD"/>
<path d="M298.468 215.12C297.155 219.369 295.918 223.661 294.801 227.867C289.277 248.51 286.209 267.075 287.692 271.923C289.472 277.757 293.849 288.448 294.661 304.642C295.472 320.835 295.549 325.773 295.549 325.773C294.091 325.705 260.064 308.296 260.064 308.296C260.064 308.296 243.989 317.555 220.44 321.133L298.468 215.12Z" fill="#D2E25F"/>
<path d="M272.51 314.441L278.357 320.695C278.357 320.695 272.604 340.947 280.439 356.104C288.275 371.261 299.17 341.317 295.549 325.756C282.938 306.061 272.276 294.712 272.276 294.712L272.51 288.563V314.441Z" fill="#131B0D"/>
<path d="M284.866 294.728L271.026 282.746C271.026 282.746 269.543 315.095 256.18 322.828C242.816 330.562 238.265 337.463 194.069 322.973C149.873 308.483 104.199 280.213 95.2923 270.13C86.386 260.046 81.2232 237.904 106.612 233.366C106.612 233.366 88.2047 222.008 94.7144 205.466C101.224 188.923 118.897 193.946 124.981 197.048L131.079 200.137L129.749 197.979C129.749 197.979 120.511 194.741 114.354 190.831C108.197 186.922 96.7583 171.846 102.694 154.556C108.631 137.266 121.884 131.564 130.314 132.694C130.314 132.694 123.592 126.626 124.684 111.023C125.776 95.4199 131.81 81.8055 139.242 78.1129C146.674 74.4204 159.578 78.5038 161.21 88.1835C162.842 97.8632 231.517 140.351 241.839 158.176C252.16 176.002 230.939 318.371 230.939 318.371C230.939 318.371 247.613 282.181 249.428 273.393C251.242 264.606 256.707 233.311 262.859 222.445C269.012 211.58 259.035 175.279 265.409 161.89C271.783 148.501 286.795 150.736 291.108 170.554C295.421 190.372 305.657 215.783 293.454 260.442C285.486 290.568 284.866 294.728 284.866 294.728Z" fill="#D2E25F"/>
<path d="M264.264 116.53L273.285 317.186C273.285 317.186 271.899 329.113 264.268 335.032C262.853 336.119 261.219 336.885 259.478 337.275C257.737 337.665 255.932 337.672 254.189 337.293L104.77 305.687C104.77 305.687 90.9516 303.138 97.2022 283.523C103.453 263.909 164.718 85.358 164.718 85.358C164.718 85.358 166.252 78.1088 178.396 80.3184C190.54 82.528 237.906 92.1014 258.412 98.9384C263.579 100.995 264.132 105.559 264.264 116.53Z" fill="#BCBEC0"/>
<path d="M245.274 322.081L115.189 294.546" stroke="#231F20" stroke-width="0.42492" stroke-miterlimit="10"/>
<path d="M255 324.137C255 324.137 265.415 328.225 272.507 321.027" stroke="#231F20" stroke-width="0.42492" stroke-miterlimit="10"/>
<path d="M196.949 318.703L166.44 312.244" stroke="#231F20" stroke-width="1.27476" stroke-miterlimit="10"/>
<path d="M257.329 306.367L253.547 110.959C253.524 109.845 253.125 108.771 252.415 107.913C251.704 107.054 250.724 106.461 249.634 106.23L177.491 90.9329C176.294 90.6793 175.047 90.8793 173.99 91.4942C172.933 92.109 172.142 93.0948 171.771 94.26L113.596 276.551C113.382 277.209 113.31 277.905 113.383 278.593C113.456 279.281 113.674 279.946 114.021 280.545C114.368 281.143 114.837 281.662 115.398 282.068C115.958 282.474 116.598 282.757 117.275 282.899L251.371 311.283C252.098 311.437 252.849 311.425 253.57 311.248C254.291 311.07 254.962 310.733 255.535 310.261C256.107 309.788 256.566 309.193 256.876 308.519C257.187 307.845 257.342 307.109 257.329 306.367Z" fill="white"/>
<path d="M249.637 106.23L176.937 90.8308C175.893 90.6096 174.804 90.7841 173.882 91.3203C172.959 91.8566 172.269 92.7164 171.944 93.733L113.535 276.776C113.333 277.407 113.265 278.074 113.337 278.733C113.409 279.392 113.618 280.028 113.951 280.602C114.285 281.175 114.734 281.671 115.272 282.06C115.809 282.448 116.422 282.72 117.07 282.856L251.375 311.283" stroke="#231F20" stroke-width="0.42492" stroke-miterlimit="10"/>
<path d="M161.966 90.5078C161.966 90.5078 164.516 103.51 157.641 115.072C150.766 126.634 150.842 123.698 150.086 127.183C149.661 129.15 148.437 133.331 148.437 133.331L144.91 143.189L142.637 150.681C142.637 150.681 143.346 159.026 140.903 165.731C139.144 170.554 137.236 172.73 134.848 176.97C134.054 178.149 133.195 179.284 132.277 180.37L129.005 189.365L126.881 195.913L125.287 200.587C125.287 200.587 123.957 204.051 122.377 209.91C122.003 211.308 121.952 213.123 121.527 214.733C121.182 216.114 120.735 217.468 120.188 218.783C119.595 220.164 118.762 221.43 117.728 222.522L111.69 229.117L110.258 233.124C110.258 233.124 102.274 244.486 105.805 234.556C109.336 224.625 112.289 213.509 113.993 209.821C115.315 206.957 122.015 204.085 125.224 200.575C125.224 200.575 126.141 198.323 126.422 197.235C127.675 192.361 127.981 186.289 123.826 183.765C119.67 181.241 143.041 148.28 141.247 141.881C139.454 135.481 142.446 114.299 143.797 104.645C145.148 94.9907 161.966 90.5078 161.966 90.5078Z" fill="#D2E25F"/>
<path d="M280.308 299.067C280.308 299.067 280.801 215.859 281.298 213.616C281.795 211.372 282.828 205.202 282.828 205.202L274.38 154.671C274.38 154.671 265.635 154.055 261.985 170.151C261.182 173.707 260.8 178.194 260.711 183.03C260.349 200.069 263.43 221.4 263.43 221.4C263.43 221.4 253.53 248.867 258.824 262.719C262.937 273.517 280.308 299.067 280.308 299.067Z" fill="#D2E25F"/>
<path d="M296.596 246.487C296.596 246.487 288.221 281.815 286.517 284.475L287.269 284.955C287.269 284.955 295.827 254.926 296.596 246.487Z" fill="#231F20"/>
<path d="M140.555 144.766C140.555 144.766 147.592 156.09 136.952 174.034C130.578 183.323 125.305 186.756 125.305 186.756" stroke="#231F20" stroke-width="0.42492" stroke-miterlimit="10"/>
<path d="M121.293 196.169C120.805 195.99 124.901 204.935 120.715 217.3C120.282 218.614 119.663 219.859 118.875 220.997C115.208 226.215 109.599 229.686 109.599 229.686" stroke="#231F20" stroke-width="0.42492" stroke-miterlimit="10"/>
<path d="M130.327 132.703C130.327 132.703 142.352 137.084 145.42 141.749" stroke="#231F20" stroke-width="0.42492" stroke-miterlimit="10"/>
<path d="M270.524 284.012C270.703 283.833 272.912 288.163 275.198 290.87C277.484 293.577 277.531 293.509 277.531 293.509C277.531 293.509 272.373 288.1 272.432 290.11C272.492 292.119 272.283 294.737 272.283 294.737C272.016 294.796 272.674 288.397 270.524 284.012Z" fill="#231F20"/>
<path d="M260.784 180.314C260.784 180.314 260.448 205.1 263.414 221.4L264.264 222.343C264.264 222.343 263.448 221.255 262.921 222.887C262.395 224.519 257.946 237.878 257.397 248.501" stroke="#231F20" stroke-width="0.42492" stroke-miterlimit="10"/>
<path d="M161.966 90.5078C161.966 90.5078 166.925 116.428 145.003 128.453" stroke="#231F20" stroke-width="0.42492" stroke-miterlimit="10"/>
<path d="M106.585 233.272L112.5 236.676" stroke="#231F20" stroke-width="0.42492" stroke-miterlimit="10"/>
<path d="M369.545 305.517C369.545 305.517 366.18 305.781 363.333 302.067H370.132C370.132 302.067 369.605 305.237 369.545 305.517Z" fill="#231F20"/>
<path d="M374.609 279.865C374.609 279.865 385.789 293.84 386.881 298.82C387.973 303.8 384.331 308.543 377.405 304.536C370.479 300.529 372.178 300.767 372.178 300.767C372.178 300.767 374.728 299.109 375.578 292.952C376.428 286.795 372.901 279.257 372.901 279.257L374.609 279.865Z" fill="#231F20"/>
<path d="M357.878 293.029C357.878 293.029 359.012 300.678 363.992 302.347C368.972 304.017 376.103 301.226 375.699 290.301C375.295 279.376 371.972 275.773 370.6 274.439C369.227 273.105 365.611 272.374 365.611 272.374C363.318 272.141 361.006 272.594 358.97 273.674C355.57 275.476 355.609 284.446 355.609 284.446C355.609 284.446 355.728 282.423 352.974 282.058C350.221 281.692 347.952 284.203 350.178 289.026C352.405 293.849 354.678 295.26 356.08 293.475C357.483 291.69 357.878 293.029 357.878 293.029Z" fill="#D2E25F"/>
<path d="M366.548 273.019C366.548 273.019 371.222 274.294 372.378 277.192C373.534 280.09 374.405 280.757 377.362 280.715C380.32 280.672 376.088 274.638 371.329 272.289C366.57 269.939 359.66 269.131 355.896 274.8C354.799 276.381 354.621 282.448 355.896 286.468C356.257 285.78 355.471 275.692 360.429 274.112C361.645 274.154 362.618 274.396 364.844 277.936C367.071 281.475 368.856 281.14 369.748 280.485C370.64 279.831 369.909 277.813 368.409 276.07C367.59 275.189 366.958 274.151 366.548 273.019Z" fill="#231F20"/>
<path d="M369.255 294.83C367.534 294.663 365.864 294.15 364.346 293.322C362.828 292.494 361.493 291.368 360.421 290.012C360.421 290.012 362.554 300.261 369.255 294.83Z" fill="#231F20"/>
<path d="M354.838 286.948C354.676 286.825 354.353 286.34 353.988 286.663C353.622 286.986 354.068 288.486 354.838 288.486C355.607 288.486 355.687 289.379 355.687 290.352C355.687 291.325 355.322 291.363 355.322 291.363C355.322 291.363 354.472 289.217 353.622 288.609C352.772 288.002 352.003 285.894 352.896 285.529C353.788 285.163 354.838 286.948 354.838 286.948Z" fill="#231F20"/>
<path d="M372.012 283.341H372.501V285.125H371.732V283.341H372.012Z" fill="#231F20"/>
<path d="M363.309 282.087V284.599C363.309 284.599 362.034 285.024 362.094 284.599C362.153 284.174 362.094 281.926 362.094 281.926L363.309 282.087Z" fill="#231F20"/>
<path d="M369.253 284.777V288.325C369.253 288.415 369.218 288.502 369.154 288.566C369.09 288.629 369.004 288.665 368.913 288.665H367.894C367.803 288.665 367.717 288.629 367.653 288.566C367.59 288.502 367.554 288.415 367.554 288.325V287.288" stroke="#231F20" stroke-width="0.42492" stroke-miterlimit="10"/>
<path d="M331.337 320.139C331.337 320.139 333.798 321.171 333.636 324.43" stroke="#231F20" stroke-width="0.42492" stroke-miterlimit="10"/>
<path d="M233.156 145.803C229.952 145.322 212.033 141.923 209.607 128.279C209.589 128.17 209.538 128.069 209.462 127.989C209.386 127.91 209.288 127.855 209.18 127.832C209.072 127.809 208.96 127.819 208.858 127.861C208.756 127.903 208.669 127.974 208.608 128.066C206.505 131.245 199.71 138.447 182.365 135.498C182.232 135.475 182.094 135.501 181.979 135.573C181.864 135.644 181.779 135.755 181.74 135.885C180.423 140.317 171.224 174.977 200.653 189.093C200.728 189.128 200.809 189.147 200.891 189.149C203.016 189.149 231.596 188.566 233.61 146.376C233.618 146.242 233.575 146.109 233.492 146.003C233.408 145.898 233.288 145.826 233.156 145.803Z" fill="#1D78CC"/>
<path d="M228.777 147.655C225.892 147.192 211.143 144.303 208.963 133.038C208.941 132.931 208.889 132.833 208.812 132.755C208.735 132.678 208.637 132.625 208.53 132.602C208.423 132.58 208.312 132.59 208.211 132.63C208.11 132.671 208.022 132.74 207.96 132.83C206.061 135.592 200.265 141.371 185.949 138.961C185.816 138.938 185.678 138.963 185.563 139.034C185.447 139.104 185.361 139.214 185.32 139.344C184.139 143.38 176.601 172.428 201.331 184.287C201.405 184.325 201.487 184.344 201.569 184.343C203.528 184.343 227.489 183.727 229.24 148.225C229.245 148.09 229.201 147.957 229.116 147.853C229.03 147.748 228.91 147.678 228.777 147.655Z" stroke="#FCF8F1" stroke-width="0.42492" stroke-miterlimit="10"/>
<path d="M193.513 157.594L201.161 166.539C201.247 166.637 201.364 166.703 201.493 166.724C201.622 166.745 201.754 166.72 201.867 166.653L218.863 156.523" stroke="#FCF8F1" stroke-width="0.42492" stroke-miterlimit="10"/>
<path d="M228.809 218.315C230.031 217.098 229.973 215.058 228.679 213.76C227.386 212.461 225.347 212.395 224.125 213.613C222.903 214.83 222.96 216.87 224.254 218.168C225.547 219.467 227.587 219.532 228.809 218.315Z" fill="#231F20"/>
<path d="M199.988 212.46C201.21 211.242 201.152 209.203 199.858 207.904C198.565 206.606 196.525 206.54 195.303 207.758C194.081 208.975 194.139 211.014 195.433 212.313C196.726 213.611 198.766 213.677 199.988 212.46Z" fill="#231F20"/>
<path d="M171.17 206.602C172.392 205.385 172.334 203.345 171.041 202.047C169.747 200.748 167.708 200.682 166.486 201.9C165.264 203.117 165.322 205.156 166.615 206.455C167.909 207.753 169.948 207.819 171.17 206.602Z" fill="#231F20"/>
<path d="M225.457 241.548C226.679 240.331 226.621 238.292 225.328 236.993C224.034 235.695 221.995 235.629 220.773 236.846C219.551 238.063 219.609 240.103 220.902 241.401C222.196 242.7 224.235 242.766 225.457 241.548Z" fill="#231F20"/>
<path d="M196.64 235.693C197.862 234.476 197.804 232.437 196.51 231.138C195.217 229.84 193.177 229.774 191.955 230.991C190.733 232.208 190.791 234.248 192.085 235.546C193.378 236.845 195.418 236.911 196.64 235.693Z" fill="#231F20"/>
<path d="M167.825 229.836C169.047 228.619 168.989 226.58 167.696 225.281C166.402 223.983 164.363 223.917 163.141 225.134C161.919 226.352 161.977 228.391 163.271 229.689C164.564 230.988 166.603 231.054 167.825 229.836Z" fill="#231F20"/>
<path d="M222.102 264.782C223.324 263.564 223.266 261.525 221.972 260.226C220.679 258.928 218.64 258.862 217.418 260.079C216.196 261.297 216.254 263.336 217.547 264.635C218.841 265.933 220.88 265.999 222.102 264.782Z" fill="#231F20"/>
<path d="M193.291 258.924C194.513 257.707 194.455 255.667 193.162 254.369C191.868 253.07 189.829 253.005 188.607 254.222C187.385 255.439 187.443 257.479 188.737 258.777C190.03 260.076 192.069 260.141 193.291 258.924Z" fill="#231F20"/>
<path d="M164.474 253.07C165.696 251.853 165.638 249.813 164.344 248.515C163.051 247.216 161.012 247.151 159.79 248.368C158.568 249.585 158.626 251.625 159.919 252.923C161.213 254.222 163.252 254.287 164.474 253.07Z" fill="#231F20"/>
<path d="M375.849 338.38C375.849 338.38 369.326 350.813 357.208 349.003L375.849 338.38Z" fill="#231F20"/>
<path d="M375.849 338.38C375.849 338.38 369.326 350.813 357.208 349.003" stroke="#231F20" stroke-width="0.42492" stroke-miterlimit="10"/>
<path d="M376.999 315.15C376.999 314.989 376.812 308.267 374.874 305.024" stroke="#231F20" stroke-width="0.21246" stroke-miterlimit="10"/>
<path d="M284.271 121.672L320.785 90.8394" stroke="#231F20" stroke-width="0.42492" stroke-miterlimit="10"/>
<path d="M255 79.9016L282.802 36.6108" stroke="#231F20" stroke-width="0.42492" stroke-miterlimit="10"/>
<path d="M153.728 59.0043L134.076 29.9441" stroke="#231F20" stroke-width="0.42492" stroke-miterlimit="10"/>
<path d="M122.619 90.4908L104.9 75.0833" stroke="#231F20" stroke-width="0.42492" stroke-miterlimit="10"/>
<path d="M295.377 73.0224C291.16 70.9139 287.952 67.2162 286.461 62.743C284.97 58.2697 285.316 53.3872 287.425 49.1695C289.533 44.9519 293.231 41.7446 297.704 40.2533C302.178 38.7619 307.06 39.1086 311.278 41.2172" fill="white"/>
<path d="M348.677 40.8688C352.923 38.9853 357.737 38.8386 362.09 40.46C366.443 42.0814 369.988 45.3421 371.966 49.5443C373.945 53.7465 374.2 58.5563 372.677 62.9443C371.154 67.3322 367.974 70.9497 363.817 73.0225" fill="white"/>
<path d="M311.277 41.217C312.625 37.3546 315.132 34.0024 318.456 31.6181C321.78 29.2337 325.759 27.9335 329.849 27.8949C333.94 27.8563 337.943 29.0813 341.311 31.4025C344.68 33.7237 347.249 37.0281 348.67 40.8643" fill="white"/>
<path d="M364.456 73.0223H295.376L305.243 41.2213L348.678 40.8687L364.456 73.0223Z" fill="white"/>
<path d="M9.77481 182.363C5.55717 180.254 2.35012 176.555 0.859155 172.082C-0.631805 167.608 -0.284538 162.725 1.82456 158.508C3.93366 154.29 7.63183 151.083 12.1055 149.592C16.5792 148.101 21.4619 148.448 25.6796 150.557" fill="white"/>
<path d="M63.0691 150.205C67.3126 148.339 72.1171 148.204 76.4586 149.829C80.8001 151.454 84.3351 154.711 86.3101 158.905C88.2851 163.099 88.544 167.898 87.0315 172.28C85.519 176.662 82.3547 180.28 78.2132 182.363" fill="white"/>
<path d="M25.6719 150.558C27.0177 146.694 29.5241 143.339 32.8483 140.953C36.1726 138.567 40.1526 137.266 44.2443 137.227C48.336 137.189 52.3398 138.415 55.7085 140.738C59.0771 143.06 61.6463 146.367 63.0648 150.205" fill="white"/>
<path d="M78.8472 182.363H9.76807L19.6347 150.558L63.0742 150.205L78.8472 182.363Z" fill="white"/>
<path d="M213.674 18.076L200.171 42.8701C200.126 42.937 200.101 43.0153 200.099 43.0957C200.097 43.1762 200.118 43.2555 200.16 43.3245C200.201 43.3935 200.261 43.4493 200.333 43.4855C200.405 43.5216 200.486 43.5366 200.566 43.5287L212.141 43.465C212.215 43.4579 212.29 43.4707 212.358 43.502C212.426 43.5333 212.485 43.5821 212.528 43.6433C212.571 43.7046 212.597 43.7762 212.604 43.8508C212.611 43.9255 212.597 44.0005 212.565 44.0684L202.316 71.0083C202.274 71.1121 202.273 71.228 202.313 71.3328C202.352 71.4376 202.43 71.5237 202.53 71.574C202.63 71.6243 202.745 71.6352 202.853 71.6043C202.96 71.5735 203.053 71.5033 203.111 71.4077L225.882 35.8122C225.926 35.741 225.949 35.659 225.949 35.5754C225.949 35.4918 225.925 35.41 225.881 35.339C225.837 35.268 225.774 35.2106 225.699 35.1734C225.624 35.1362 225.541 35.1205 225.457 35.1281L214.031 36.3773C213.967 36.3842 213.901 36.3769 213.839 36.356C213.778 36.3351 213.721 36.301 213.674 36.2562C213.627 36.2113 213.59 36.1568 213.566 36.0963C213.542 36.0358 213.531 35.9707 213.534 35.9057L214.516 18.3182C214.52 18.2173 214.49 18.1179 214.431 18.0359C214.372 17.9539 214.287 17.8942 214.19 17.8662C214.093 17.8383 213.99 17.8438 213.896 17.8818C213.803 17.9199 213.724 17.9883 213.674 18.076Z" fill="#1D78CC"/>
</g>
<defs>
<clipPath id="clip0_889_19548">
<rect width="498.567" height="502" fill="white"/>
</clipPath>
</defs>
</svg>
