<svg width="34" height="31" viewBox="0 0 34 31" fill="none" xmlns="http://www.w3.org/2000/svg">
<path d="M33.4037 15.7845L32.5275 8.61913C32.4333 7.87677 32.1337 7.17546 31.6624 6.59424C31.1911 6.01302 30.5668 5.57499 29.8599 5.32952L14.9669 0.218664C14.3316 -0.00124376 13.6508 -0.0564205 12.9884 0.0582924C12.3259 0.173005 11.7033 0.45386 11.1789 0.874592L1.50347 6.8557C0.968751 7.27961 0.552345 7.83421 0.29444 8.46597C0.0365359 9.09772 -0.0541556 9.78529 0.0311195 10.4623L1.7776 24.7422C1.86466 25.4385 2.13315 26.0997 2.55619 26.6595C2.97922 27.2194 3.54195 27.6582 4.18799 27.9321L14.0409 30.6974C14.3248 30.8178 14.6355 30.8613 14.9416 30.8236C15.2477 30.7859 15.5385 30.6683 15.7848 30.4827C16.0311 30.297 16.2242 30.0498 16.3447 29.7659C16.4651 29.4819 16.5088 29.1713 16.4712 28.8652L13.5165 4.70848C13.4885 4.47878 13.519 4.24572 13.6051 4.03096C13.6913 3.8162 13.8304 3.6267 14.0094 3.48009C14.1884 3.33348 14.4016 3.23451 14.6292 3.19238C14.8567 3.15025 15.0912 3.16633 15.3109 3.23912L24.2237 6.41011C24.9309 6.64699 25.5568 7.07883 26.0293 7.6559C26.5018 8.23296 26.8016 8.93177 26.8943 9.6718L27.617 15.5791C27.6361 15.737 27.6148 15.8972 27.5552 16.0446C27.4956 16.192 27.3995 16.3219 27.276 16.4221C27.1525 16.5223 27.0056 16.5895 26.8491 16.6175C26.6925 16.6454 26.5314 16.6332 26.3809 16.582L18.8008 13.7429C18.5814 13.6687 18.3468 13.6512 18.1188 13.6922C17.8908 13.7332 17.6769 13.8313 17.4971 13.9773C17.3173 14.1234 17.1775 14.3126 17.0906 14.5274C17.0038 14.7421 16.9728 14.9754 17.0005 15.2053L17.6983 20.9322C17.7407 21.2799 17.8745 21.6101 18.086 21.8892C18.2976 22.1683 18.5793 22.3864 18.9025 22.5212L22.5091 24.0255C23.1531 24.2923 23.8555 24.3866 24.547 24.2992C25.2385 24.2118 25.8953 23.9457 26.4527 23.527L31.8446 19.4579C32.4027 19.0351 32.8403 18.4735 33.1138 17.829C33.3873 17.1845 33.4873 16.4796 33.4037 15.7845Z" fill="#1D78D3"/>
</svg>
